<svg width="24" height="24" xmlns="http://www.w3.org/2000/svg">
    <g fill="none" fill-rule="evenodd">
        <path d="M0 0h24v24H0z"/>
        <path d="M0 0h24v24H0z"/>
        <path d="m8.066 13.119 2.812-2.806-6.975-6.95a3.967 3.967 0 0 0 0 5.612l4.163 4.144zm6.737-1.795c1.52.704 3.657.208 5.237-1.368 1.898-1.893 2.265-4.61.805-6.067-1.451-1.447-4.174-1.09-6.082.803-1.58 1.576-2.076 3.708-1.37 5.224l-9.7 9.676 1.402 1.398 6.846-6.81L18.778 21l1.401-1.398-6.836-6.82 1.46-1.458z" fill="#FFF" fill-rule="nonzero"/>
    </g>
</svg>
