<svg width="327" height="176" xmlns="http://www.w3.org/2000/svg" xmlns:xlink="http://www.w3.org/1999/xlink">
    <defs>
        <linearGradient x1="81.897%" y1="73.114%" x2="9.81%" y2="37.347%" id="b">
            <stop stop-color="#D92838" offset="0%"/>
            <stop stop-color="#ED9E2D" offset="100%"/>
        </linearGradient>
        <linearGradient x1="148.267%" y1="65.111%" x2="-16.644%" y2="39.144%" id="d">
            <stop stop-color="#D92838" offset="0%"/>
            <stop stop-color="#ED9E2D" offset="100%"/>
        </linearGradient>
        <linearGradient x1="184.084%" y1="98.145%" x2="-195.361%" y2="-38.1%" id="f">
            <stop stop-color="#D92838" offset="0%"/>
            <stop stop-color="#ED9E2D" offset="100%"/>
        </linearGradient>
        <linearGradient x1="142.672%" y1="87.237%" x2="-282.365%" y2="-83.55%" id="i">
            <stop stop-color="#D92838" offset="0%"/>
            <stop stop-color="#ED9E2D" offset="100%"/>
        </linearGradient>
        <linearGradient x1="59.138%" y1="52.774%" x2="-176.289%" y2=".147%" id="l">
            <stop stop-color="#D92838" offset="0%"/>
            <stop stop-color="#ED9E2D" offset="100%"/>
        </linearGradient>
        <linearGradient x1="602.608%" y1="611.254%" x2="-167.264%" y2="-150.453%" id="o">
            <stop stop-color="#D92838" offset="0%"/>
            <stop stop-color="#ED9E2D" offset="100%"/>
        </linearGradient>
        <path d="M101.787 58.082c-1.503-1.93-2.739-5.4-.696-8.78a93.776 93.776 0 0 1 3.466-5.286c3.247-4.625 9.086-5.591 12.462-2.533 3.393 3.058 3.655 8.288 1.066 11.996a89.647 89.647 0 0 0-2.869 4.387c-1.666 2.748-4.96 3.347-7.401 3.248-1.137-.05-2.227.692-2.692 1.828a69.1 69.1 0 0 0-.734 1.866l25.766-.076c0-.334-.001-.686-.01-1.029-.547-29.721-21.118-54.54-48.783-61.65A65.192 65.192 0 0 0 64.886 0C28.942.106-.105 29.265 0 65.114l48.282-.141c.227-.766.471-1.514.716-2.27 2-6.099 4.458-12.013 7.323-17.7.894-1.78 1.074-3.731.426-4.97-1.231-2.36-1.932-6.631.849-11.21a134.94 134.94 0 0 1 12.216-16.951c.36-.423.792-.715 1.188-.856.439-.15.845-.108 1.083.164.426.464.155 1.485-.521 2.296a129.855 129.855 0 0 0-9.453 12.643c-.308.458-.456.933-.472 1.346-.017.395.098.72.345.896.548.42 1.543-.11 2.156-1.044a127.811 127.811 0 0 1 9.287-12.406c.343-.404.765-.687 1.152-.811.378-.133.722-.108.961.076.547.403.33 1.502-.372 2.34A125.645 125.645 0 0 0 66.055 28.7c-.29.44-.438.906-.445 1.311-.008.404.134.738.407.913.274.175.635.157.996-.012.36-.167.73-.486 1.011-.917a123.774 123.774 0 0 1 8.944-11.965c.694-.82 1.742-1.174 2.22-.683.21.21.29.535.23.913-.05.396-.252.828-.577 1.215a121.128 121.128 0 0 0-8.778 11.727c-.588.88-.611 1.963-.01 2.277.264.149.607.13.942-.02.352-.16.703-.46.975-.882a121.06 121.06 0 0 1 8.61-11.516c.624-.731 1.549-1.085 2.06-.718.301.21.409.58.356.993-.051.387-.235.8-.551 1.18A118.532 118.532 0 0 0 71.72 37.378c-2.41 3.98-6.011 5.486-8.653 5.844-1.357.172-2.799 1.46-3.55 3.246a123.997 123.997 0 0 0-5.906 17.574c-.079.308-.157.607-.227.915l22.886-.068c.279-.95.364-1.935.238-2.848a95.987 95.987 0 0 1-1.425-5.183c-.174-2.03.251-4.256 1.232-6.29 1.91-3.996 4.057-7.87 6.425-11.614 1.545-2.44 3.61-4.486 5.897-5.881a105.772 105.772 0 0 1 6.659-3.73c.959-.495 1.937-.445 2.564.098.945.833.854 2.494-.173 3.798a102.875 102.875 0 0 0-17.003 31.637l19.59-.057a93.606 93.606 0 0 1 1.673-3.346c.588-1.127.54-2.472-.16-3.392" id="a"/>
        <path d="m0 8.952 21.827-.064a105.72 105.72 0 0 1 1.459-4.752c.41-1.25.846-2.49 1.31-3.722.053-.132.096-.273.131-.414L1.841.068C1.12 2.998.501 5.97 0 8.952" id="e"/>
        <path d="M.87 5.434A78.187 78.187 0 0 0 0 8.944l18.426-.054A89.08 89.08 0 0 1 22.075 0L2.485.057A97.114 97.114 0 0 0 .87 5.434" id="h"/>
        <path d="M38.54 1.284A4.433 4.433 0 0 0 35.39 0L2.855.096A83.403 83.403 0 0 0 0 8.983l35.416-.104a4.45 4.45 0 0 0 4.437-4.452 4.46 4.46 0 0 0-1.313-3.143" id="k"/>
        <path d="M6.067 0C2.707.01-.01 2.735 0 6.087l.018 6.071 12.17-.036-.02-6.07C12.16 2.699 9.428-.01 6.069 0" id="n"/>
    </defs>
    <g fill="none" fill-rule="evenodd">
        <g transform="translate(97.613 21.985)">
            <mask id="c" fill="#fff">
                <use xlink:href="#a"/>
            </mask>
            <path d="M101.787 58.082c-1.503-1.93-2.739-5.4-.696-8.78a93.776 93.776 0 0 1 3.466-5.286c3.247-4.625 9.086-5.591 12.462-2.533 3.393 3.058 3.655 8.288 1.066 11.996a89.647 89.647 0 0 0-2.869 4.387c-1.666 2.748-4.96 3.347-7.401 3.248-1.137-.05-2.227.692-2.692 1.828a69.1 69.1 0 0 0-.734 1.866l25.766-.076c0-.334-.001-.686-.01-1.029-.547-29.721-21.118-54.54-48.783-61.65A65.192 65.192 0 0 0 64.886 0C28.942.106-.105 29.265 0 65.114l48.282-.141c.227-.766.471-1.514.716-2.27 2-6.099 4.458-12.013 7.323-17.7.894-1.78 1.074-3.731.426-4.97-1.231-2.36-1.932-6.631.849-11.21a134.94 134.94 0 0 1 12.216-16.951c.36-.423.792-.715 1.188-.856.439-.15.845-.108 1.083.164.426.464.155 1.485-.521 2.296a129.855 129.855 0 0 0-9.453 12.643c-.308.458-.456.933-.472 1.346-.017.395.098.72.345.896.548.42 1.543-.11 2.156-1.044a127.811 127.811 0 0 1 9.287-12.406c.343-.404.765-.687 1.152-.811.378-.133.722-.108.961.076.547.403.33 1.502-.372 2.34A125.645 125.645 0 0 0 66.055 28.7c-.29.44-.438.906-.445 1.311-.008.404.134.738.407.913.274.175.635.157.996-.012.36-.167.73-.486 1.011-.917a123.774 123.774 0 0 1 8.944-11.965c.694-.82 1.742-1.174 2.22-.683.21.21.29.535.23.913-.05.396-.252.828-.577 1.215a121.128 121.128 0 0 0-8.778 11.727c-.588.88-.611 1.963-.01 2.277.264.149.607.13.942-.02.352-.16.703-.46.975-.882a121.06 121.06 0 0 1 8.61-11.516c.624-.731 1.549-1.085 2.06-.718.301.21.409.58.356.993-.051.387-.235.8-.551 1.18A118.532 118.532 0 0 0 71.72 37.378c-2.41 3.98-6.011 5.486-8.653 5.844-1.357.172-2.799 1.46-3.55 3.246a123.997 123.997 0 0 0-5.906 17.574c-.079.308-.157.607-.227.915l22.886-.068c.279-.95.364-1.935.238-2.848a95.987 95.987 0 0 1-1.425-5.183c-.174-2.03.251-4.256 1.232-6.29 1.91-3.996 4.057-7.87 6.425-11.614 1.545-2.44 3.61-4.486 5.897-5.881a105.772 105.772 0 0 1 6.659-3.73c.959-.495 1.937-.445 2.564.098.945.833.854 2.494-.173 3.798a102.875 102.875 0 0 0-17.003 31.637l19.59-.057a93.606 93.606 0 0 1 1.673-3.346c.588-1.127.54-2.472-.16-3.392" fill="url(#b)" mask="url(#c)"/>
        </g>
        <path d="M0 78.574A4.443 4.443 0 0 0 4.463 83l50.044-.147c.687-3 1.48-5.965 2.388-8.886l-52.459.154A4.437 4.437 0 0 0 0 78.574" fill="url(#d)" transform="translate(89 13)"/>
        <g transform="translate(149.156 86.884)">
            <mask id="g" fill="#fff">
                <use xlink:href="#e"/>
            </mask>
            <path d="m0 8.952 21.827-.064a105.72 105.72 0 0 1 1.459-4.752c.41-1.25.846-2.49 1.31-3.722.053-.132.096-.273.131-.414L1.841.068C1.12 2.998.501 5.97 0 8.952" fill="url(#f)" mask="url(#g)"/>
        </g>
        <g transform="translate(175.804 86.814)">
            <mask id="j" fill="#fff">
                <use xlink:href="#h"/>
            </mask>
            <path d="M.87 5.434A78.187 78.187 0 0 0 0 8.944l18.426-.054A89.08 89.08 0 0 1 22.075 0L2.485.057A97.114 97.114 0 0 0 .87 5.434" fill="url(#i)" mask="url(#j)"/>
        </g>
        <g transform="translate(199.147 86.706)">
            <mask id="m" fill="#fff">
                <use xlink:href="#k"/>
            </mask>
            <path d="M38.54 1.284A4.433 4.433 0 0 0 35.39 0L2.855.096A83.403 83.403 0 0 0 0 8.983l35.416-.104a4.45 4.45 0 0 0 4.437-4.452 4.46 4.46 0 0 0-1.313-3.143" fill="url(#l)" mask="url(#m)"/>
        </g>
        <g transform="translate(157.703 13)">
            <mask id="p" fill="#fff">
                <use xlink:href="#n"/>
            </mask>
            <path d="M6.067 0C2.707.01-.01 2.735 0 6.087l.018 6.071 12.17-.036-.02-6.07C12.16 2.699 9.428-.01 6.069 0" fill="url(#o)" mask="url(#p)"/>
        </g>
        <text font-family="Rubik-Bold, Rubik" font-size="40" font-weight="bold" letter-spacing="3.333" fill="#000" transform="translate(88 13)">
                        <tspan x=".42" y="120">Planet</tspan>
                        
                        <tspan x="17.25" y="167" font-size="20" letter-spacing="1.667">Resturant</tspan>
                    </text>
    </g>
</svg>
